<svg xmlns="http://www.w3.org/2000/svg" xmlns:xlink="http://www.w3.org/1999/xlink" viewBox="0 0 83.067 26.067" fill="#fff" fill-rule="evenodd" stroke="#000" stroke-linecap="round" stroke-linejoin="round"><use xlink:href="#A" x=".533" y=".533"/><symbol id="A" overflow="visible"><g stroke="none" fill-rule="nonzero"><path d="M43.47 21.154V7.835h6.66c1.877 0 3.584 1.707 3.586 3.586v9.732h-2.39v-9.23c0-.928-.683-1.707-1.707-1.707h-3.755v12.636zm14.684 0V7.835h2.39v13.32zm0-16.39h2.39v-2.73l-2.39 1.707zm9.23 16.39h-2.39V7.835H78.14c2.048 0 3.586 1.536 3.586 3.586v9.732l-2.39 1.707V11.926c0-1.024-.683-1.707-1.707-1.707h-3.072v10.933h-2.39V10.22h-4.78z" fill="#000"/><path d="M18.302 0l-2.8 2.192c-1.46-.047-4.32.28-5.872.845-1.43-.905-2.684-1.904-2.684-1.904L5.19 4.06c-1.008.533-2.005 1.13-2.9 1.923L0 5.05c1.38 2.78 2.304 5.566 4.828 7.24 4.014-6.34 22.667-5.756 26.766-.035 2.648-1.38 3.678-4.352 4.72-7.095a76.71 76.71 0 0 0-2.45.862c-.548-.597-1.84-1.515-2.575-1.958-.698-1.277-1.71-3.002-1.71-3.002s-1.202.894-2.594 1.87c-1.882-.348-4.157-.768-6.07-.665C19.612 1.195 18.3 0 18.3 0z" fill="#f3d400"/><path d="M1.425 10.957l3.31 8.02c5.75 7.587 20.437 8.115 26.833.147l3.56-8.22c-1.643 2.432-4.316 4.113-5.963 5.018-1.17.64-3.87 1.028-3.87 1.028l-7.087-3.673-7.128 3.598s-2.663-.427-3.87-.992c-2.432-1.3-4.07-2.834-5.796-4.936z" fill="#ffe953"/></g></symbol></svg>